<?xml version="1.0" encoding="utf-8"?>
<!-- Generator: Adobe Illustrator 21.1.0, SVG Export Plug-In . SVG Version: 6.00 Build 0)  -->
<svg version="1.1" id="Layer_1" xmlns="http://www.w3.org/2000/svg" xmlns:xlink="http://www.w3.org/1999/xlink" x="0px" y="0px"
	 viewBox="0 0 216 216" style="enable-background:new 0 0 216 216;" xml:space="preserve">
<style type="text/css">
	.st0{fill:#231F20;}
</style>
<path class="st0" d="M140.6,47.8c-0.8-0.8-1.6-1.5-2.1-2c-3.4-3.1-7.2-5.2-11.1-5.5c-0.8-0.1-5.8-0.3-8.6-0.9
	c-4.7-0.9-18.9-5.1-26.6-4.8c-1.3,0-12.2,1-16.2,10.1c-3,6.7-0.1,13.3,1.7,16.6c0.8,1.5,4,9.2,13.2,12.7c3.4,1.3,10.2,2,16.1,2.2
	v3.1H103c-1.3,0-2.4,1-2.5,2.3l-8.6,93.7c-0.1,1.1,0.5,2.2,1.6,2.6l13.1,5.4c0.3,0.1,0.6,0.2,1,0.2c0.1,0,0.3,0,0.4,0l16.3-2.7
	c1.3-0.2,2.3-1.4,2.1-2.8l-10-96.4c-0.1-1.3-1.2-2.3-2.5-2.3H110v-3.1c0.6,0,1.3,0,1.8,0c5.5-0.1,6.8-0.5,12.4-2.3
	c7.5-2.4,16.8-7.8,19.1-15.6c0.2-0.7,0.3-1.3,0.3-1.9C143.8,53.1,142.7,50.1,140.6,47.8z M105.4,84.2h2.1l-0.9,93.4l-9.4-3.9
	L105.4,84.2z M121.1,176l-12.5,2.1l0.9-93.8h2.1L121.1,176z M138,58.6c-1,3.7-7.8,8.9-14,10.9c-4.5,1.4-9.2,2.2-13.6,2.7
	c-6.1,0.7-11-0.4-14.6-1.7c-3.7-1.4-9.3-6.3-11.9-9.9c-1.8-2.5-4.8-8.8-2.4-14.3c3.3-7.4,12.6-8.3,13.6-8.3
	c6.3-0.2,19.6,3.2,23.5,3.9c4.7,0.9,5.5,0.7,7.9,1.4c2.5,0.7,4.9,2.2,7.7,4.8c1,1,2.9,2.5,3.8,4.8C138.7,54.8,138.5,56.8,138,58.6z"
	/>
</svg>
