<?xml version="1.0" encoding="utf-8"?>
<!-- Generator: Adobe Illustrator 21.1.0, SVG Export Plug-In . SVG Version: 6.00 Build 0)  -->
<svg version="1.1" id="Layer_1" xmlns="http://www.w3.org/2000/svg" xmlns:xlink="http://www.w3.org/1999/xlink" x="0px" y="0px"
	 viewBox="0 0 216 216" style="enable-background:new 0 0 216 216;" xml:space="preserve">
<g>
	<path d="M107.1,70.6c-4.2,0-7.6,3.4-7.6,7.6c0,4.2,3.4,7.6,7.6,7.6c4.2,0,7.6-3.4,7.6-7.6C114.7,74,111.3,70.6,107.1,70.6
		 M110.5,79.3h-3.4c-0.4,0-0.7-0.3-0.7-0.7v-5.3c0-0.4,0.3-0.7,0.7-0.7c0.4,0,0.7,0.3,0.7,0.7V78h2.7c0.4,0,0.7,0.3,0.7,0.7
		C111.1,79,110.9,79.3,110.5,79.3z"/>
	<path d="M112.9,95.9c-0.2,0.2-0.3,0.4-0.3,0.7v3.5c0,0.3,0.1,0.5,0.3,0.7c0.2,0.2,0.4,0.3,0.7,0.3h3.5c0.3,0,0.5-0.1,0.7-0.3
		c0.2-0.2,0.3-0.4,0.3-0.7v-3.5c0-0.3-0.1-0.5-0.3-0.7c-0.2-0.2-0.4-0.3-0.7-0.3h-3.5C113.4,95.6,113.1,95.7,112.9,95.9"/>
	<path d="M118.1,107.1c0-0.3-0.1-0.5-0.3-0.7c-0.2-0.2-0.4-0.3-0.7-0.3h-3.5c-0.3,0-0.5,0.1-0.7,0.3c-0.2,0.2-0.3,0.4-0.3,0.7v3.5
		c0,0.3,0.1,0.5,0.3,0.7c0.2,0.2,0.4,0.3,0.7,0.3h3.5c0.3,0,0.5-0.1,0.7-0.3c0.2-0.2,0.3-0.4,0.3-0.7V107.1"/>
	<path d="M89.5,95.6h-3.5c-0.3,0-0.5,0.1-0.7,0.3c-0.2,0.2-0.3,0.4-0.3,0.7v3.5c0,0.3,0.1,0.5,0.3,0.7c0.2,0.2,0.4,0.3,0.7,0.3h3.5
		c0.3,0,0.5-0.1,0.7-0.3c0.2-0.2,0.3-0.4,0.3-0.7v-3.5c0-0.3-0.1-0.5-0.3-0.7C90,95.7,89.8,95.6,89.5,95.6"/>
	<path d="M89.5,116.7h-3.5c-0.3,0-0.5,0.1-0.7,0.3c-0.2,0.2-0.3,0.4-0.3,0.7v3.4c0,0.3,0.1,0.5,0.3,0.7c0.2,0.2,0.4,0.3,0.7,0.3h3.5
		c0.3,0,0.5-0.1,0.7-0.3c0.2-0.2,0.3-0.4,0.3-0.7v-3.4c0-0.3-0.1-0.5-0.3-0.7C90,116.8,89.8,116.7,89.5,116.7"/>
	<path d="M89.5,106h-3.5c-0.3,0-0.5,0.1-0.7,0.3c-0.2,0.2-0.3,0.4-0.3,0.7v3.5c0,0.3,0.1,0.5,0.3,0.7c0.2,0.2,0.4,0.3,0.7,0.3h3.5
		c0.3,0,0.5-0.1,0.7-0.3c0.2-0.2,0.3-0.4,0.3-0.7v-3.5c0-0.3-0.1-0.5-0.3-0.7C90,106.2,89.8,106,89.5,106"/>
	<path d="M117.1,116.7h-3.5c-0.3,0-0.5,0.1-0.7,0.3c-0.2,0.2-0.3,0.4-0.3,0.7v3.4c0,0.3,0.1,0.5,0.3,0.7c0.2,0.2,0.4,0.3,0.7,0.3
		h3.5c0.3,0,0.5-0.1,0.7-0.3c0.2-0.2,0.3-0.4,0.3-0.7v-3.4c0-0.3-0.1-0.5-0.3-0.7C117.6,116.8,117.4,116.7,117.1,116.7"/>
	<path d="M99.9,111.2h3.5c0.3,0,0.5-0.1,0.7-0.3c0.2-0.2,0.3-0.4,0.3-0.7v-3.4c0-0.3-0.1-0.5-0.3-0.7c-0.2-0.2-0.4-0.3-0.7-0.3h-3.5
		c-0.3,0-0.5,0.1-0.7,0.3c-0.2,0.2-0.3,0.4-0.3,0.7v3.4c0,0.3,0.1,0.5,0.3,0.7C99.3,111.1,99.6,111.2,99.9,111.2"/>
	<path d="M103.2,122.2c0.3,0,0.5-0.1,0.7-0.3c0.2-0.2,0.3-0.4,0.3-0.7v-3.4c0-0.3-0.1-0.5-0.3-0.7c-0.2-0.2-0.4-0.3-0.7-0.3h-3.5
		c-0.3,0-0.5,0.1-0.7,0.3c-0.2,0.2-0.3,0.4-0.3,0.7v3.4c0,0.3,0.1,0.5,0.3,0.7c0.2,0.2,0.4,0.3,0.7,0.3H103.2"/>
	<path d="M99.9,101.1h3.5c0.3,0,0.5-0.1,0.7-0.3c0.2-0.2,0.3-0.4,0.3-0.7v-3.5c0-0.3-0.1-0.5-0.3-0.7c-0.2-0.2-0.4-0.3-0.7-0.3h-3.5
		c-0.3,0-0.5,0.1-0.7,0.3c-0.2,0.2-0.3,0.4-0.3,0.7v3.5c0,0.3,0.1,0.5,0.3,0.7C99.3,101,99.6,101.1,99.9,101.1"/>
	<path d="M126.5,111.6h3.5c0.3,0,0.5-0.1,0.7-0.3c0.2-0.2,0.3-0.4,0.3-0.7v-3.5c0-0.3-0.1-0.5-0.3-0.7c-0.2-0.2-0.4-0.3-0.7-0.3
		h-3.5c-0.3,0-0.5,0.1-0.7,0.3c-0.2,0.2-0.3,0.4-0.3,0.7v3.5c0,0.3,0.1,0.5,0.3,0.7C126,111.5,126.2,111.6,126.5,111.6"/>
	<path d="M126.5,101.1h3.5c0.3,0,0.5-0.1,0.7-0.3c0.2-0.2,0.3-0.4,0.3-0.7v-3.5c0-0.3-0.1-0.5-0.3-0.7c-0.2-0.2-0.4-0.3-0.7-0.3
		h-3.5c-0.3,0-0.5,0.1-0.7,0.3s-0.3,0.4-0.3,0.7v3.5c0,0.3,0.1,0.5,0.3,0.7C126,101,126.2,101.1,126.5,101.1"/>
	<path d="M140.2,122.2h3.5c0.3,0,0.5-0.1,0.7-0.3c0.2-0.2,0.3-0.4,0.3-0.7v-3.4c0-0.3-0.1-0.5-0.3-0.7c-0.2-0.2-0.4-0.3-0.7-0.3
		h-3.5c-0.3,0-0.5,0.1-0.7,0.3c-0.2,0.2-0.3,0.4-0.3,0.7v3.4c0,0.3,0.1,0.5,0.3,0.7C139.6,122.1,139.9,122.2,140.2,122.2"/>
	<path d="M140.3,101.1h3.4c0.3,0,0.5-0.1,0.7-0.3c0.2-0.2,0.3-0.4,0.3-0.7v-3.5c0-0.3-0.1-0.5-0.3-0.7c-0.2-0.2-0.4-0.3-0.7-0.3
		h-3.4c-0.3,0-0.5,0.1-0.7,0.3c-0.2,0.2-0.3,0.4-0.3,0.7v3.5c0,0.3,0.1,0.5,0.3,0.7C139.8,101,140,101.1,140.3,101.1"/>
	<path d="M140.3,111.2h3.4c0.3,0,0.5-0.1,0.7-0.3c0.2-0.2,0.3-0.4,0.3-0.7v-3.4c0-0.3-0.1-0.5-0.3-0.7c-0.2-0.2-0.4-0.3-0.7-0.3
		h-3.4c-0.3,0-0.5,0.1-0.7,0.3c-0.2,0.2-0.3,0.4-0.3,0.7v3.4c0,0.3,0.1,0.5,0.3,0.7C139.8,111.1,140,111.2,140.3,111.2"/>
	<path d="M126.5,122.2h3.5c0.3,0,0.5-0.1,0.7-0.3c0.2-0.2,0.3-0.4,0.3-0.7v-3.4c0-0.3-0.1-0.5-0.3-0.7c-0.2-0.2-0.4-0.3-0.7-0.3
		h-3.5c-0.3,0-0.5,0.1-0.7,0.3c-0.2,0.2-0.3,0.4-0.3,0.7v3.4c0,0.3,0.1,0.5,0.3,0.7C126,122.1,126.2,122.2,126.5,122.2"/>
	<path d="M89.5,127.6h-3.5c-0.3,0-0.5,0.1-0.7,0.3c-0.2,0.2-0.3,0.4-0.3,0.7v3.5c0,0.3,0.1,0.5,0.3,0.7c0.2,0.2,0.4,0.3,0.7,0.3h3.5
		c0.3,0,0.5-0.1,0.7-0.3c0.2-0.2,0.3-0.4,0.3-0.7v-3.5c0-0.3-0.1-0.5-0.3-0.7C90,127.7,89.8,127.6,89.5,127.6"/>
	<path d="M143.7,127.6h-3.5c-0.3,0-0.5,0.1-0.7,0.3c-0.2,0.2-0.3,0.4-0.3,0.7v3.5c0,0.3,0.1,0.5,0.3,0.7c0.2,0.2,0.4,0.3,0.7,0.3
		h3.5c0.3,0,0.5-0.1,0.7-0.3c0.2-0.2,0.3-0.4,0.3-0.7v-3.5c0-0.3-0.1-0.5-0.3-0.7C144.3,127.7,144,127.6,143.7,127.6"/>
	<path d="M126.8,127.6c-0.3,0-0.5,0.1-0.7,0.3c-0.2,0.2-0.3,0.4-0.3,0.7v3.5c0,0.3,0.1,0.5,0.3,0.7c0.2,0.2,0.4,0.3,0.7,0.3h3.5
		c0.3,0,0.5-0.1,0.7-0.3c0.2-0.2,0.3-0.4,0.3-0.7v-3.5c0-0.3-0.1-0.5-0.3-0.7c-0.2-0.2-0.4-0.3-0.7-0.3H126.8"/>
	<path d="M89.5,138.5h-3.5c-0.3,0-0.5,0.1-0.7,0.3c-0.2,0.2-0.3,0.4-0.3,0.7v3.4c0,0.3,0.1,0.5,0.3,0.7c0.2,0.2,0.4,0.3,0.7,0.3h3.5
		c0.3,0,0.5-0.1,0.7-0.3c0.2-0.2,0.3-0.4,0.3-0.7v-3.4c0-0.3-0.1-0.5-0.3-0.7C90,138.6,89.8,138.5,89.5,138.5"/>
	<path d="M143.7,138.5h-3.5c-0.3,0-0.5,0.1-0.7,0.3c-0.2,0.2-0.3,0.4-0.3,0.7v3.4c0,0.3,0.1,0.5,0.3,0.7c0.2,0.2,0.4,0.3,0.7,0.3
		h3.5c0.3,0,0.5-0.1,0.7-0.3c0.2-0.2,0.3-0.4,0.3-0.7v-3.4c0-0.3-0.1-0.5-0.3-0.7C144.3,138.6,144,138.5,143.7,138.5"/>
	<path d="M75.6,95.6h-3.5c-0.3,0-0.5,0.1-0.7,0.3c-0.2,0.2-0.3,0.4-0.3,0.7v3.5c0,0.3,0.1,0.5,0.3,0.7c0.2,0.2,0.4,0.3,0.7,0.3h3.5
		c0.3,0,0.5-0.1,0.7-0.3c0.2-0.2,0.3-0.4,0.3-0.7v-3.5c0-0.3-0.1-0.5-0.3-0.7C76.1,95.7,75.9,95.6,75.6,95.6"/>
	<path d="M75.6,105.7h-3.5c-0.3,0-0.5,0.1-0.7,0.3c-0.2,0.2-0.3,0.4-0.3,0.7v3.4c0,0.3,0.1,0.5,0.3,0.7c0.2,0.2,0.4,0.3,0.7,0.3h3.5
		c0.3,0,0.5-0.1,0.7-0.3c0.2-0.2,0.3-0.4,0.3-0.7v-3.4c0-0.3-0.1-0.5-0.3-0.7C76.1,105.8,75.9,105.7,75.6,105.7"/>
	<path d="M72,122.2h3.5c0.3,0,0.5-0.1,0.7-0.3c0.2-0.2,0.3-0.4,0.3-0.7v-3.4c0-0.3-0.1-0.5-0.3-0.7c-0.2-0.2-0.4-0.3-0.7-0.3H72
		c-0.3,0-0.5,0.1-0.7,0.3c-0.2,0.2-0.3,0.4-0.3,0.7v3.4c0,0.3,0.1,0.5,0.3,0.7C71.5,122.1,71.7,122.2,72,122.2"/>
	<path d="M75.6,127.6h-3.5c-0.3,0-0.5,0.1-0.7,0.3c-0.2,0.2-0.3,0.4-0.3,0.7v3.5c0,0.3,0.1,0.5,0.3,0.7c0.2,0.2,0.4,0.3,0.7,0.3h3.5
		c0.3,0,0.5-0.1,0.7-0.3c0.2-0.2,0.3-0.4,0.3-0.7v-3.5c0-0.3-0.1-0.5-0.3-0.7C76.1,127.7,75.9,127.6,75.6,127.6"/>
	<path d="M75.6,138.5h-3.5c-0.3,0-0.5,0.1-0.7,0.3c-0.2,0.2-0.3,0.4-0.3,0.7v3.4c0,0.3,0.1,0.5,0.3,0.7c0.2,0.2,0.4,0.3,0.7,0.3h3.5
		c0.3,0,0.5-0.1,0.7-0.3c0.2-0.2,0.3-0.4,0.3-0.7v-3.4c0-0.3-0.1-0.5-0.3-0.7C76.1,138.6,75.9,138.5,75.6,138.5"/>
	<path d="M130.3,138.5h-3.5c-0.3,0-0.5,0.1-0.7,0.3c-0.2,0.2-0.3,0.4-0.3,0.7v3.4c0,0.3,0.1,0.5,0.3,0.7c0.2,0.2,0.4,0.3,0.7,0.3
		h3.5c0.3,0,0.5-0.1,0.7-0.3c0.2-0.2,0.3-0.4,0.3-0.7v-3.4c0-0.3-0.1-0.5-0.3-0.7C130.8,138.6,130.6,138.5,130.3,138.5"/>
	<path d="M152.5,82.5h-22.2V66c0-2.9-2.4-5.3-5.3-5.3H91.2c-2.9,0-5.3,2.4-5.3,5.3v16.5H63.7c-2.9,0-5.3,2.4-5.3,5.3v68.8l99.4,0.2
		v-69C157.8,84.9,155.4,82.5,152.5,82.5 M151.6,150.5l-33.2-0.1V136H99.1v14.4l-34.5-0.1l0-61.6h27.5l0-21.8l32,0v21.8l27.5,0V150.5
		z"/>
	<rect x="99.1" y="128.3" width="19.3" height="4.3"/>
</g>
</svg>
