<?xml version="1.0" encoding="utf-8"?>
<!-- Generator: Adobe Illustrator 21.1.0, SVG Export Plug-In . SVG Version: 6.00 Build 0)  -->
<svg version="1.1" id="Layer_1" xmlns="http://www.w3.org/2000/svg" xmlns:xlink="http://www.w3.org/1999/xlink" x="0px" y="0px"
	 viewBox="0 0 216 216" style="enable-background:new 0 0 216 216;" xml:space="preserve">
<g>
	<path d="M138.2,77.9c-4.8-1.2-7.8,0-7.8,0c-2-9.5-7.4-13-13.7-14.5c-13.4-3.2-25,8.8-25.7,11.5C74.5,73,69.7,89.4,69.1,92.1
		c-1,4.2,0.8,7.3,0.9,7.3c-3.2,1.8-7.2,5.6-7.1,12.9c0.1,8.4,7.8,16.5,16.5,15.9c-5.1,13.5,3.2,22.8,5.5,25c5,4.5,9.6,4.1,15,0.5
		c11.7-7.8,28.7-9.3,36.8-7.6c1.6,0.3,2.9-0.5,3.4-1c13.1-13,1.2-32.9,1.2-32.9s7.4-2.3,9-10.4C153.1,87,142.4,78.8,138.2,77.9
		 M103.6,69.8c2.5-1.4,9.3-4.5,16.1,0c4.9,3.3,6.8,9.4,3.9,15.2c-3,5.7-9.5,8.3-14.6,5.6c-5.1-2.6-6.8-9.4-3.9-15.2
		c0.6-1.1,2-2.7,2.8-3.5c0.3-0.3,0.2-0.8-0.2-0.9c-1.1-0.4-2.5-0.6-3.9-0.6C103.5,70.4,103.3,70,103.6,69.8z M76.3,87.5
		c1.6-2.8,5.4-7.7,12.2-7.5c5.5,0.2,10.1,4.4,10.6,10.8c0.5,6.4-3.4,11.9-8.7,12.4c-5.3,0.4-10.1-4.4-10.6-10.8
		c-0.1-1.2,0.2-3.3,0.4-4.4c0.1-0.4-0.3-0.7-0.7-0.7c-0.8,0.2-1.6,0.5-2.5,1C76.6,88.6,76,88,76.3,87.5z M72.2,117.1
		c-0.6-0.7-1.3-2.1-1.7-3c-0.2-0.4-0.7-0.4-1-0.1c-0.3,0.3-0.5,0.7-0.7,1.1c-0.3,0.5-1,0.4-1.1-0.2c-0.3-2.7,0-7.2,4.2-9.8
		c3.5-2.2,8.4-1.4,11.7,2.7c3.3,4.1,3.5,9.4,0.3,12C80.8,122.4,75.5,121.2,72.2,117.1z M133.9,141c-0.1,0-0.1,0-0.2,0
		c-7.1-1.9-26.6-0.3-33.7,6.5c-4.7,4.5-8.5-1.7-8.3-7c0-0.4-0.4-0.7-0.8-0.5c-2,1-3.9,2.9-5.3,4.8c-0.2,0.4-0.8,0.3-1-0.1
		c-5.5-11,1.5-27.1,20.6-35.7c0,0-1.8-1.4-5.4-1.2c-0.6,0-0.9-0.7-0.4-1c5.9-4.6,12.4-6.5,19.1-5.2c7.4,1.4,20.1,8.3,22.3,27.4
		C141.5,134.3,136.9,141,133.9,141z M141.6,105.1c-4.1,1.5-8.8-1.3-10.6-6.1c-1.8-4.9,0.1-10,4.1-11.5c0.7-0.3,2.1-0.3,2.9-0.3
		c0.4,0,0.7-0.3,0.6-0.7c-0.1-0.4-0.3-0.9-0.6-1.4c-0.3-0.5,0.2-1.1,0.8-0.8c2.1,1.1,5.4,3.6,6.9,9.3
		C147.2,98.7,145.7,103.6,141.6,105.1z"/>
</g>
</svg>
