<?xml version="1.0" encoding="utf-8"?>
<!-- Generator: Adobe Illustrator 21.1.0, SVG Export Plug-In . SVG Version: 6.00 Build 0)  -->
<svg version="1.1" id="Layer_1" xmlns="http://www.w3.org/2000/svg" xmlns:xlink="http://www.w3.org/1999/xlink" x="0px" y="0px"
	 viewBox="0 0 216 216" style="enable-background:new 0 0 216 216;" xml:space="preserve">
<g>
	<path d="M126.1,83.8c-2.4,1.1-5,2-5.9,2.2c-0.2,0.1-0.3,0.1-0.3,0.1s5.2-0.2,8.5-1.8c3.3-1.6,4.4-3,7.9-3c2.8,0,6,1.8,7.4,2.6
		c0.4,0.2,0.6,0.4,0.6,0.4s-2.4-4-6.4-4.9c0,0-0.1,0-0.1,0c-0.1,0-0.2,0-0.3-0.1c-0.4-0.1-0.8-0.1-1.3-0.1h0c0,0,0,0,0,0
		c-0.1,0-0.2,0-0.3,0C131.3,79.5,129,82.5,126.1,83.8z"/>
	<path d="M137.3,84.3c-5,0-7.3,2.1-10.2,3.4c-5.9,2.6-11,1.6-11,1.6s5.3,2.3,11.9,0.2c3.5-1.1,5.8-2.8,9.4-2.8
		c3.6,0,8.6,3.5,8.6,3.5S142.3,84.3,137.3,84.3z"/>
	<path d="M128.3,92.8c-2.7,0.3-6.5-0.3-6.5-0.3s3.4,1.5,7.9,1.4c4.5,0,6.6-1.3,10.3-1.6c3.7-0.2,5.5-0.2,5.5-0.2s-3.2-1.9-6.3-1.9
		C136.2,90.3,132.1,92.4,128.3,92.8z"/>
	<path d="M107.2,122.2c-7.2-11.9,1.3-30.3,1.3-30.3s-3.7,4.7-5.6,11.6c-0.3,1.1-0.5,2.2-0.7,3.4c-1.1,7.5,0.1,17.4,5.4,20.4
		c4.9,2.8,8.6,2.4,9.2,2.3c0,0,0.1,0,0.1,0S111.5,129.2,107.2,122.2z"/>
	<path d="M101.9,91.9c-1.4,1.4-2.9,3.4-4.1,5.9c-4.5,9.2-4.5,14.4-4.5,14.4s1-1.6,2.3-2.9c1.3-1.3,1.7-1.6,1.7-1.6s0-0.1,0-0.3
		c0.1-1,0.7-5,2.4-9.5c1.8-4.8,5.9-9.2,5.9-9.2S104,89.7,101.9,91.9z"/>
	<path d="M100.5,77.7c4.9,0,8.4,2.4,8.4,2.4s-2.2,0.2-4.4,1.4c-2.3,1.3-3.2,3.3-3.2,3.3s2.6-2.9,8.3-3.2c3.1-0.1,4.1,0.6,6,0.4
		c2.1-0.3,3.1-1.4,3.2-1.7c0,0,0-0.1,0-0.1s-3.1,0.7-4.8,0.1c-1.7-0.5-7.7-4.8-12.4-4.7c-6.7,0.1-8.4,5.6-8.4,5.6s0-0.1,0.1-0.2
		C94,80.4,96.4,77.7,100.5,77.7z"/>
	<path d="M151,103.8c1,0,1.6-0.4,2.1-0.6c0.3,0.2,0.8,0.3,1.3,0.4c0.7,0.1,1.3-0.1,1.8-0.4l0,0.2c0.2,0.7,0.5,1.8,0.5,3.3
		c0.1,1.2,0,2.4,0.1,3.3c0.1,0.8,0.3,2,1.4,2.3c1.5,0.4,4.1-3.6,5.2-7.8c0.5-1.8,0.8-3.6,1-5.1c0.5-1,1-2,1.3-2.8
		c0.8-2,1.6-4.6,1.5-7.2c-0.1-2.6-1-4.9-1.8-6.5c-0.3-0.6-0.7-1.2-1-1.6c-0.2-0.4-0.5-0.7-0.7-1c-0.1-0.1-0.1-0.1-0.1-0.1l0,0
		c-1.2-1.3-2.9-2.3-6.1-3.5c-2.3-0.9-4.4-1.7-6-2.3c0.1-0.5,0.1-1.9-0.7-4c-0.6-1.6-2.2-2.7-3.6-3.4c-0.9-0.5-1.9-0.9-2.5-1.1
		c0.1-0.4,0.3-1,0.4-1.3c0.1-0.6,0.3-2.5-1.4-2.8c-1.1-0.2-3.9,0.2-5.7,0.4c-1.8-1.2-4.7-3-5.9-3.5c-3.1-1.5-5-1.4-5.5-1.3
		c-0.3-0.1-1.7-0.6-3.3-1.1c-1.9-0.6-4.3-1.2-6.2-1.3c-2.6-0.1-4.7,0-5.8,0.1l-0.2,0l-0.3,0l-0.1,0c-3.9,0.4-7.1,1.1-9.2,1.6l0,0
		c0,0-8.5,2.1-13.5,2.7c-5,0.6-12.2,0.5-16.1,0.3c-1-0.1-1.8-0.1-2.6-0.1c-0.7,0-1.4,0-2,0.1c-1.3,0.2-2.1,0.9-2.3,2.2l-0.1,0.6l0,0
		c0,0,0,0,0,0.1c0.6,2.3,3.1,6.5,5.1,8.9c2.4,3,4.7,4.5,6,5.1c-0.5,0.6-1.4,1.6-2.4,2.7c-1.7,1.9-3.9,4.1-5.5,5.6
		c-3.5,3-9.4,9.5-11.6,17.8c-2.3,8.4-3.9,13.1-3.9,13.1s3,0.5,6.1-1.4c-0.4,1.9-0.8,3.5-1.1,4.6c-1.5,5.2-4.5,7.3-4.5,7.3
		s1.7,1.4,5.4,2c1.7,0.3,2.9,0.2,3.7,0c0,2.3-0.1,4.6-0.3,5.9c-0.5,2.9-1.4,5.3-1.4,5.3s2.4-0.5,4.2-1.1c1.8-0.6,4.1-1.5,5.5-2.8
		c0.8,1.4,1.8,3,3,4.5c1.6,2,3.5,3.5,5,4.5c1.5,1,3.1,1.8,3.1,1.8s0.1-0.8,0.2-1c0.1-0.3,0.2-0.6,0.4-1c0.4-0.9,1.2-2.1,2.7-3.5
		c0.7-0.6,1.6-1.2,2.6-1.6c0.9,1.8,2.1,4.1,3.8,6.2c1.6,2,3.5,3.5,5,4.5c1.5,1,3.1,1.8,3.1,1.8s0.1-0.8,0.2-1c0.1-0.2,0.2-0.6,0.4-1
		c0.4-0.9,1.2-2.1,2.7-3.5c2.6-2.5,8.2-3.3,13-2.4c2.5,0.8,4.8,1.5,6.7,2.1c0.4,1.1,0.8,2.3,1.6,4.3c1.9,4.5,7.3,5.1,7.9,5.2
		l-0.1,3.2l3.7-1l-0.3,1.7c0,0,4.6-1.6,6.4-2c3.8-0.8,6.3-3.5,7.9-5.8c1.2-1.8,1.9-3.4,2.2-4.1c0.4-0.2,1-0.7,1.7-1.3
		c1.5-1.2,2.2-3.4,2.1-5.1c0-1-0.4-1.9-0.7-2.5c-0.2-0.3-0.4-0.7-0.6-0.9c-0.1-0.1-0.2-0.2-0.3-0.4c0-0.1,0-0.1,0-0.2
		c0.1-1.7,0.2-3.8,0-4.9c-0.3-1.9-1.1-4.1-3-3.7c-0.9,0.2-1.4,1.1-1.8,2.2c-1.2-3-2.9-8.1-3.2-12.5c-0.3-5.4,3.9-11.9,5.5-14.1
		C150.8,103.8,150.9,103.8,151,103.8z M160.8,105.6C160.8,105.6,160.8,105.7,160.8,105.6C160.8,105.6,160.8,105.6,160.8,105.6
		L160.8,105.6z M163.7,90.3c0.2-0.1,0.5-0.3,0.7-0.4c-0.1,2-0.5,3.5-0.9,4.6c-0.6-0.3-1.3-0.7-2.3-0.9c0.4-0.4,0.8-0.8,1.1-1.2
		c0.2-0.3,0.3-0.5,0.4-0.8c0.1-0.2,0.2-0.5,0.3-0.9C163.2,90.6,163.4,90.5,163.7,90.3z M161.1,89.5c-0.1,0.8-2,3.4-2,3.4
		s1.2-3.1,1.2-3.8c0.1-1.1,0.3-1.4,1.2-1.9c1.7-0.9,1.7-1.8,1.9-2c0.2,1.6-0.5,2.1-1.1,2.4C161.4,88,161.2,88.4,161.1,89.5z
		 M163.4,82.7c0,0-1.4,1.6-2.6,1.7c-1.4,0.1-4.2-1-6-1.1c-1.7-0.1-4.8,0.4-4.7,2.1c-0.3-0.2-0.5-0.6-0.6-1c-0.1-1.6,3-2.2,4.7-2.1
		c1.8,0.1,4.5,1.2,6,1.1C161.7,83.3,163.3,82.8,163.4,82.7L163.4,82.7L163.4,82.7z M149.8,144.1c-0.8,0.9-2.7,1.5-2.7,1.5
		s0,0-0.4,0.9c-0.1,0.2-0.2,0.4-0.3,0.6c-0.4,0.8-0.9,1.7-1.6,2.6c-0.8,1.1-1.9,1.9-2.9,2.4l-0.3,0.2c0,0,0-0.4-0.1-0.7
		c-0.1-0.6-0.7-1.5-0.7-1.5s-0.5,1-1,1.5c-0.4,0.5-1.2,1-1.3,1.1c0-0.1,0.1-0.2-0.1-0.9c-0.1-0.5-0.6-1.2-0.6-1.2s-2.7,2.3-2.8,2.3
		c-0.1-0.2-0.1-0.3-0.2-0.5c-0.3-0.5-0.7-0.7-1.1-0.9c-0.2,0-0.3-0.1-0.6-0.1c-0.2,0-0.3,0-0.5-0.1c-0.3,0-0.7-0.1-1.1-0.2
		c-0.4-0.1-0.8-0.2-1.2-0.4c-1.6-0.7-2.5-2.2-5.6-9.1c-1.5-3.4-3.3-5.5-4.7-6.8c-1.6-1.4-2.9-1.9-3.1-1.9l-2.6-0.8
		c0,0,2,3.8,3.5,6.3c-7.4-2-20.6-5.9-26.9-10.5c-6-4.3-9.5-11.9-9.5-11.9s-1.3,4.5,1.4,10c1.5,3.1,4,5.6,5.6,6.9
		c-1.7,0.2-3.4,0.5-5,1.1c-3,1-4.4,2.4-5,3c-0.1-0.1-0.3-0.2-0.4-0.4c-0.5-0.5-1.3-1.5-2.1-3c-0.8-1.5-1.3-3-1.6-4.1
		c-0.3-1.1-0.4-2.5-0.4-2.5l-4.5,2.3c0.1-0.5,0.2-1.2,0.3-2.1c0.3-2,1-4.6,2.1-7.5c2.3-5.8,3.7-11.6,3.7-11.6l-11.2,11.2
		c0.2-0.9,0.4-1.9,0.6-3c0.5-2.6,1-5.6,1.5-8.6c0.9-4.6,3.3-7.9,5.5-10.1c1.1-1.1,4-4.1,4-4.1s-1.4,0.2-3.1,0.7
		c-1.7,0.5-3.9,1.2-6,2.4c-0.3,0.2-0.6,0.3-0.8,0.5c0.1-0.4,0.3-0.9,0.5-1.3c0.8-2,2.2-4.4,4.3-6.3c4.2-3.9,12.7-12.2,13.6-13.1
		c0.5-0.2,3-1.4,5.9-2.2c3.2-0.8,8-1.1,8-1.1l-0.7-1c-0.1-0.1-2.6-3.4-10-4.1c0,0,0,0,0,0c-0.7-0.1-1.4-0.1-2.2-0.1
		c-6.8-0.2-10.1-1.7-11.7-3c-0.4-0.3-1.5-1.1-2.7-1.8c-0.3-0.2-0.7-0.4-1-0.6c0,0,0.1,0,0.1,0c1.1,0.1,2.7,0.3,4.4,0.4
		c2.4,0.2,5.2,0.3,7.8,0.1c6.1-0.5,10.8-1.3,14.1-2c-0.3,0.4-0.6,0.8-0.9,1.4c-1.6,2.8-2,4.5-2,4.5s1.9-3.3,7.3-6
		c1.4-0.7,2.6-1.3,3.6-1.7l2.7-0.5c-0.1,0.1-0.2,0.3-0.3,0.4c-0.9,1.3-1.3,2.6-1.3,2.6s2.4-1.4,6.4-2.8c1.9-0.6,4.3-0.9,6.3-0.9
		l2.4,0.2c-0.2,0.1-0.5,0.1-0.8,0.2c-2.9,0.8-3.8,2.2-3.8,2.2s5.4-0.7,8.3-0.5c2.9,0.2,5.1,2.9,6.3,4.4c1.8,2.1,5.3,2.9,5.3,2.9
		s-1.1-1.2-2.7-3.1c-0.4-0.5-0.7-1-1-1.4c2,1.2,4.3,2.6,5.2,3.2c0.9,0.6,2.1,1.1,3.3,1.5c1.2,0.5,2.6,0.9,3.9,1.5
		c0.6,0.2,1,0.4,1.3,0.6c0.4,0.2,0.7,0.5,0.9,0.7c0.2,0.2,0.3,0.4,0.4,0.6c0.1,0.1,0.1,0.3,0.2,0.5c-0.2,0-0.3,0.1-0.5,0.1
		c-0.6,0.1-1.2,0.3-1.7,0.5c-0.1-0.2-0.2-0.4-0.4-0.6c-0.2-0.2-0.3-0.4-0.5-0.6c0,0-0.1-0.1-0.1-0.1c-0.3-0.3-0.8-0.6-1.3-0.8
		c-0.5-0.2-1.1-0.1-1.5-0.1c-0.4,0-0.9,0.2-0.9,0.2s3.3,4.3,4.4,4.9c0.5,0.3,1.2,0.5,2,0.8c0.8,0.3,1.9,0.6,3.3,1.1
		c5.6,1.8,7.3,2.5,8.9,3.5c0.7,0.4,1.3,0.8,1.7,1.4c-0.4,0.1-0.8,0.2-1.3,0.2c-1.4,0.1-4.4-1.2-6.6-1.1c-1.9,0.1-4.2,0.2-5.3,2.3
		c0,0.1-0.1,0.1-0.1,0.2v0c0,0,0,0.1-0.1,0.2c0,0,0,0,0,0c-0.1,0.2-0.1,0.4-0.2,0.6c-0.1,0.7-0.1,1.8,0.7,2.6c3.3,3.1,5.8,3,7.2,4
		c0.7,0.5,0.9,1.4,0.8,2.1c-0.8,0-1.7,0-2.6,0c-2.3,0.1-5.6,0.6-8.9,1.2c-3.3,0.6-6.6,1.3-9,1.6c-4.9,0.7-11.5-0.2-16.2,1.8
		c-2.4,1-5.2,3.4-7,8.1c-2.1,5.4-1.5,9.4-0.1,12.5c0.7,1.5,1.6,2.8,2.5,3.9c0.9,1.1,1.8,2,2.5,2.8c1.7,2,3.9,5,6.2,8.3
		c1.3,1.8,2.6,3.7,3.9,5.6c3.8,5.5,12.1,6.9,17.8,5.7c1.9-0.4,3.4-0.9,4.6-1.5C150.2,143.4,150.1,143.8,149.8,144.1z M147.3,138.2
		c0,0,1-2,1.4-2.8c0.4-0.8,0.8-1.9,1.1-2.7c0.2-0.7,0.4-1.2,0.6-1.5c0,0.1,0.1,0.1,0.1,0.2c0.2,0.3,0.3,0.9,0.4,1.6
		c0.1,0.8,0.1,2.5,0,4.1c0,0.8-0.1,1.5-0.2,2.1c0,0-0.1,0.1-0.2,0.1c-1.1,0.6-2.8,1.4-4.8,1.9c-3.1,0.8-6.8,0.7-10.8-1.2
		c-0.5-0.2-1-0.5-1.6-0.8c-0.9-0.5-1.6-1.1-2.3-1.9c0.1-0.1,0.3-0.2,0.4-0.2c0,0,0,0,0,0c0,0,0.1,0,0.1-0.1c0.2-0.1,0.3-0.2,0.5-0.4
		c0.8-0.6,1.6-1.5,2.3-2.6c0.3-0.5,0.5-0.9,0.7-1.3c0.2-0.4,0.5-0.8,0.7-1.2c0.1-0.2,0.3-0.4,0.4-0.6c0.1-0.1,0.1-0.2,0.2-0.3
		c0,0.1,0.1,0.2,0.2,0.4c0.1,0.4,0.3,0.8,0.5,1.4v0c0.1,0.4,0.2,0.9,0.3,1.6c0.4,3,0.5,5,0.5,5l0,0v0c0,0,0.2-0.2,0.6-0.5
		c0.5-0.3,1.1-0.7,1.8-0.7c0.5,0,0.8,0.1,1.1,0.2c0.5,0.2,0.7,0.6,0.7,0.6s0.3-0.4,0.8-0.7c0,0,0,0,0,0c0,0,0,0,0.1,0
		c0.2-0.1,0.3-0.1,0.6-0.1l0,0l0,0l0,0c0.1,0,0.2,0,0.4,0c0.1,0,0.2,0,0.3,0.1c0.2,0.1,0.5,0.2,0.7,0.5c0.3-0.4,0.6-0.6,1.1-0.7
		c0.3,0,0.5,0,0.8,0.1C147,137.8,147.3,138.2,147.3,138.2z M145.9,133.6l0.3,1c-0.1,0-0.1,0-0.2,0c-0.4,0.1-0.8,0.2-1.1,0.4
		c-0.3-0.1-0.7-0.2-1.2-0.2c-0.5,0-1,0.1-1.4,0.2c-0.1,0-0.2,0.1-0.3,0.1c-0.3-0.1-0.8-0.3-1.5-0.3c-0.4,0-0.3,0-0.6,0.1
		c-0.1-0.5-0.5-1.4-0.7-2.3c-0.7-2.8-1.5-5.2-2.6-5.2c-0.8,0-1.4,0.9-1.9,1.5c-0.5,0.8-1.1,1.8-1.9,3.1c-0.5,0.8-1.1,1.5-1.6,1.9
		c-0.1-0.2-0.2-0.4-0.3-0.6c-1.4-2.8-1.1-7.1-3.6-10.1c-1.9-2.4-6.6-2.5-8.7-2.4c-0.5-0.6-1-1.2-1.4-1.9c1.6-1,5.4-3,8.6-3.1
		c4.2-0.1,6.6,0.8,8.4,2.9c1.9,2.2,3.1,4.6,3.1,4.6s-0.2-3.1-2.1-5.8c-0.2-0.3-0.4-0.5-0.7-0.8c0.5-0.2,1.4-0.5,2.4-0.2
		c1.7,0.4,4.1,2.2,5.5,6.7c1.3,4.5,1,6.8,2.3,8.7C145.2,132.7,145.6,133.2,145.9,133.6z M147.7,100.8c-0.1,0-0.1,0-0.2,0
		c0,0,0,0-0.1,0c-0.8-0.1-1.7-1.1-1.7-1.1s-0.5,0.5-1.1,0.9c-0.2,0.1-0.4,0.2-0.7,0.3c0,0,0,0,0,0c0,0,0,0,0,0c0,0-0.1,0-0.1,0
		c0,0,0,0-0.1,0c-0.6,0.1-1.4-0.2-1.9-0.5c-0.4-0.2-0.7-0.4-0.7-0.4s-0.6,4-1.6,6.3c-0.4,1-0.9,1.8-1.4,2.6v0
		c-0.2,0.3-0.4,0.6-0.6,0.9c-0.5,0.8-1.1,1.4-1.6,1.9l0,0l0,0c0.1-2.5,0.1-4.7-0.5-7.6c-0.2-0.8-0.5-1.8-0.8-2.7
		c-0.5-0.2-1,0.2-1.6,0.4l0,0c-0.1,0-0.2,0.1-0.3,0.1c0,0,0,0,0,0c0,0-0.1,0-0.1,0c0,0,0,0,0,0c0,0-0.1,0-0.1,0c0,0,0,0,0,0
		c0,0-0.1,0-0.1,0c0,0,0,0-0.1,0c0,0-0.1,0-0.1,0c0,0,0,0-0.1,0c0,0-0.1,0-0.1-0.1c0,0,0,0-0.1,0c0,0-0.1,0-0.1-0.1
		c0,0-0.1,0-0.1-0.1c0,0-0.1-0.1-0.1-0.1c0,0-0.1,0-0.1-0.1c0,0-0.1-0.1-0.1-0.1c0,0-0.1-0.1-0.1-0.1c0,0-0.1-0.1-0.1-0.1
		c0,0-0.1-0.1-0.1-0.1c0,0-0.1-0.1-0.1-0.1c-0.1-0.1-0.2-0.2-0.2-0.3c0,0-0.6,0.9-1.7,0.9c-0.1,0-0.2,0-0.3,0c0,0-0.1,0-0.1,0
		c0,0-0.1,0-0.2,0c0,0-0.1,0-0.1,0c0,0-0.1,0-0.1,0c0,0-0.1,0-0.1,0c0,0-0.1,0-0.1,0c0,0,0,0,0,0c0,0,0,0-0.1,0
		c-0.1,0-0.2-0.1-0.2-0.1c0,0,0,0-0.1,0c-0.1,0-0.2-0.1-0.3-0.1c0,0-0.1,0-0.1,0c-0.1,0-0.1-0.1-0.2-0.1c0,0,0,0-0.1-0.1
		c-0.1-0.1-0.2-0.1-0.2-0.2c0,0,0,0-0.1-0.1c-0.1-0.1-0.1-0.1-0.2-0.2c0,0,0,0-0.1-0.1c-0.1-0.1-0.1-0.1-0.2-0.2c0,0,0,0,0,0
		c0-0.1-0.1-0.1-0.2-0.2c0,0,0,0,0-0.1c-0.1-0.1-0.1-0.2-0.2-0.2c2,0,4.5-0.1,6.7-0.2c0.7,0,1.4-0.1,2-0.1c0.4,0,0.8-0.1,1.2-0.1
		c0.2,0,0.4,0,0.5,0c0.3,0,0.6-0.1,0.9-0.1c2.3-0.3,5.5-1,8.7-1.6c3.2-0.6,6.4-1.2,8.9-1.2c2.5,0,4.8,0.5,6.5,1
		c0.6,0.1,1.1,0.3,1.5,0.5c0,0.4-0.1,0.8-0.2,1.3c-0.2,1.3-0.5,2.8-0.9,4.4c-0.3,1-0.6,1.9-0.9,2.6c0,0,0,0,0,0
		c-0.4,1-0.9,1.8-1.3,2.4c0,0,0,0,0-0.1c0-0.3,0-0.6,0-0.9c0-0.5,0-0.9,0-1.4c-0.1-2-0.5-3.4-0.8-4.2c-0.2-0.5-0.3-0.8-0.4-0.9
		c0,0,0,0,0-0.1l-0.1-0.2l-0.5-0.8c0,0-1.1,0.9-2.2,1l0,0l0,0l0,0c0,0,0,0,0,0c-0.2,0-0.5-0.1-0.7-0.2c-0.5-0.2-0.9-0.6-0.9-0.6
		s-1.1,0.8-1.9,0.9l0,0l0,0c-0.9,0-2.1-0.9-2.1-0.9S148.6,100.8,147.7,100.8z"/>
	<path d="M111.4,73.6c0,0,0.1,0.8-1.8,1.5c-1.9,0.7-2.6,0.4-2.6,0.4s1,1.1,3.9,0.7c0.7-0.1,1.5-0.3,2.1-0.7c0.7,2.2,4.1,3.6,7.9,3.3
		c2.6-0.2,4.7-1.2,6-2.5c0.9,0.3,1.8,0.6,2.8,0.8c5.4,0.9,6.4-1.5,6.5-2.7c0.2-1.7-0.8-3.2-0.8-3.2s0,0,0,0.1
		c-0.1,0.4-0.7,2.2-2.3,2.4c-0.7,0.1-1.8-0.3-1.8-0.3l-6.1-4c-0.1,0-0.1-0.1-0.2-0.1l-3.9-2.5c0,0-4.1,1.2-8,2.1
		c-3.9,1-5.8,0.5-5.8,0.5s0,0,0,0.1c0.2,0.2,1.2,1.1,4,1.7c0.2,0,0.5,0.1,0.8,0.1c-0.3,0.1-0.7,0.2-1,0.2c-4.2,0.9-8.4-0.5-8.4-0.5
		s1.6,1.3,4,2.1C109.1,73.8,111.4,73.6,111.4,73.6z M116.8,73.1c0.5-0.1,1.6-0.2,3.8-0.4c0,0.1,0,0.2,0.1,0.3
		c0.2,1.1,0.1,2.9,0.1,2.9s0.6-0.4,1.3-1.8c0.1-0.2,0.2-0.3,0.2-0.5c0.7,0.6,1.5,1.2,2.5,1.7c-0.4,0.8-1.4,1.6-3.3,1.9
		c-0.1,0-0.1,0-0.2,0c-2.6,0-4.7-1.1-4.8-2.7C116.4,74,116.5,73.6,116.8,73.1z"/>
</g>
</svg>
